<svg id="Layer_1" data-name="Layer 1" xmlns="http://www.w3.org/2000/svg" viewBox="0 0 106.54 89.48"><defs><style>.cls-1{opacity:0.6;}.cls-2{fill:#fff;}</style></defs><g class="cls-1"><path class="cls-2" d="M65.87,81.09c-3.73,0-7.85-1.22-12.29-3.64C36.2,68,26.06,57.4,19.67,42.11c-5-12-.53-17.62,1.63-19.49,2.55-2.2,6.05-2.9,8.16-1.64,3.09,1.86,12,9.46,11.1,13.08a15.65,15.65,0,0,1-1.36,3.15c-1.22,2.36-2.73,5.3-2.14,8.41.26.7,2.76,7.43,6.68,10.68l.62.51c4,3.37,7.89,6.56,11.62,5.81A13.56,13.56,0,0,0,59.71,61c2.72-1.48,5.79-3.17,9.92-.39,5.46,3.69,10.7,9,9,12.94a13.2,13.2,0,0,1-7.73,6.7A15.19,15.19,0,0,1,65.87,81.09ZM27,22.28a7,7,0,0,0-4.4,1.8c-1.84,1.59-5.64,6.47-1.11,17.29,6.2,14.85,16.09,25.14,33.05,34.39,6,3.3,11.35,4.21,15.77,2.69a11.42,11.42,0,0,0,6.59-5.65c1-2.22-2.53-6.67-8.31-10.57-3.15-2.13-5.25-1-7.91.48a15.34,15.34,0,0,1-4.28,1.8c-4.63.92-9-2.71-13.23-6.22l-.61-.51C38,54,35.33,46.5,35.22,46.19l0-.13c-.76-3.79,1-7.22,2.3-9.73a14.1,14.1,0,0,0,1.19-2.71c.43-1.79-6.15-8.55-10.21-11A3,3,0,0,0,27,22.28Z"/><path class="cls-2" d="M57.8,51.68a1,1,0,0,1-1-.94c-.07-3.14-1-5.41-2.62-6.78a8.09,8.09,0,0,0-5.88-1.4A1,1,0,0,1,48,40.67a9.9,9.9,0,0,1,7.43,1.79c2.13,1.73,3.26,4.5,3.34,8.23a1,1,0,0,1-.93,1Z"/><path class="cls-2" d="M65.58,51.89h-.09a1,1,0,0,1-.87-1c0-.08.63-7.78-4.46-12.53a15.33,15.33,0,0,0-11.65-3.89,1,1,0,1,1-.27-1.91A17.13,17.13,0,0,1,61.47,36.9c5.79,5.4,5.1,13.76,5.07,14.11A1,1,0,0,1,65.58,51.89Z"/><path class="cls-2" d="M74.23,51.68h-.15a1,1,0,0,1-.8-1.11c0-.09,1.38-9.26-6.9-18.07-7.45-7.92-17.78-6.73-17.89-6.72a1,1,0,0,1-.24-1.91,24.24,24.24,0,0,1,19.53,7.32c8.92,9.48,7.42,19.59,7.4,19.69A1,1,0,0,1,74.23,51.68Z"/><path class="cls-2" d="M69.59,89.48H30.93C17.82,89.48,1.83,85,.12,63.35-1,48.9,6.66,43.18,9.22,41.69,8.11,38.25,4.62,24.88,14,15.35A20.17,20.17,0,0,1,28.72,9.4a18.63,18.63,0,0,1,11.77,4c2.4-4.19,12-17.66,34.09-12C83,3.5,89.17,7.76,92.86,14c5.6,9.5,3.75,20.5,3.15,23.31,2.74,2,14.18,11.4,9.36,26.14-5.44,16.61-20.9,15.74-21.05,15.73a1,1,0,0,1-.89-1,.94.94,0,0,1,1-.89c.58,0,14.13.74,19.09-14.41S95,38.9,94.41,38.54A1,1,0,0,1,94,37.48C94,37.36,97.13,25,91.2,15,87.78,9.19,82,5.23,74.1,3.21,49.89-2.95,42,14.59,41.63,15.34a1,1,0,0,1-.72.57,1,1,0,0,1-.86-.29c-2.45-2.6-6.8-4.25-11.35-4.29h-.21A18.17,18.17,0,0,0,15.35,16.7c-9.71,9.89-4.11,25-4,25.11A1,1,0,0,1,10.79,43C10.38,43.22.8,47.7,2,63.2c1.6,20.13,16.6,24.36,28.9,24.36H69.59c2,0,3.38-.57,4.13-1.69,1.55-2.3.33-6.69-.27-8.18A1,1,0,1,1,75.23,77c.11.26,2.53,6.36.09,10C74.18,88.63,72.26,89.48,69.59,89.48Z"/></g></svg>