<svg id="Layer_1" data-name="Layer 1" xmlns="http://www.w3.org/2000/svg" viewBox="0 0 345.67 74.26"><defs><style>.cls-1{isolation:isolate;}.cls-2{fill:#fff;}</style></defs><g id="Welcome_back_Lucy" data-name="Welcome back Lucy"><g class="cls-1"><path class="cls-2" d="M0,.78H7.25V31.9H0Z"/><path class="cls-2" d="M13.64.78H20L34.8,20.09V.78h7.26V31.9H35.79L20.92,12.56h0V31.9H13.64Z"/><path class="cls-2" d="M54.8,7.23H46.09V.78H70.71V7.23H62V31.9H54.8Z"/><path class="cls-2" d="M74.74.78H96.68V7.21H82v5.88H94.6v6H82v6.32h14.9V31.9H74.74Z"/><path class="cls-2" d="M101.42.78h7.25V25.45h13.07V31.9H101.42Z"/><path class="cls-2" d="M125.83.78h7.26V25.45h13.06V31.9H125.83Z"/><path class="cls-2" d="M150.25.78h7.25V31.9h-7.25Z"/><path class="cls-2" d="M170.16,30.41a16.44,16.44,0,0,1-6-5.94,15.64,15.64,0,0,1-2.23-8.18,15.57,15.57,0,0,1,2.24-8.19,16.39,16.39,0,0,1,6.07-5.91A16.61,16.61,0,0,1,178.58,0a17.57,17.57,0,0,1,6.7,1.37,15.9,15.9,0,0,1,5.75,4,11.9,11.9,0,0,1,3,6.12h-7.37a8.29,8.29,0,0,0-3.3-3.58,9.62,9.62,0,0,0-5-1.27,9.38,9.38,0,0,0-4.64,1.17,8.62,8.62,0,0,0-3.34,3.38,10.2,10.2,0,0,0-1.24,5.13,10.32,10.32,0,0,0,1.24,5.18,8.34,8.34,0,0,0,3.33,3.33A9.53,9.53,0,0,0,178.37,26a9.27,9.27,0,0,0,5.27-1.42,6.63,6.63,0,0,0,2.79-4H178.1V14.81h16.38a21.6,21.6,0,0,1-1.84,9.46,13.92,13.92,0,0,1-5.53,6.18,16.7,16.7,0,0,1-8.69,2.16A16.14,16.14,0,0,1,170.16,30.41Z"/><path class="cls-2" d="M198.85.78h22V7.21H206.11v5.88h12.6v6h-12.6v6.32H221V31.9H198.85Z"/><path class="cls-2" d="M225.53.78h6.34L246.7,20.09V.78H254V31.9h-6.27L232.81,12.56h0V31.9h-7.26Z"/><path class="cls-2" d="M266.61,30.42a16.19,16.19,0,0,1-6.05-5.94,15.71,15.71,0,0,1-2.24-8.19,15.69,15.69,0,0,1,2.24-8.2,16.22,16.22,0,0,1,6.05-5.92A16.59,16.59,0,0,1,275,0a17,17,0,0,1,6.75,1.41,14.43,14.43,0,0,1,5.65,4.35,14.85,14.85,0,0,1,3,7.24H283a7.87,7.87,0,0,0-3-4.82,8.86,8.86,0,0,0-5.26-1.54,9.35,9.35,0,0,0-4.64,1.17,8.7,8.7,0,0,0-3.32,3.38,10.41,10.41,0,0,0-1.22,5.13,10.52,10.52,0,0,0,1.22,5.18,8.38,8.38,0,0,0,3.32,3.33A9.55,9.55,0,0,0,274.76,26,8.76,8.76,0,0,0,280,24.43a7.86,7.86,0,0,0,3-4.8h7.41a14.76,14.76,0,0,1-3,7.23,14.31,14.31,0,0,1-5.64,4.34A17,17,0,0,1,275,32.61,16.51,16.51,0,0,1,266.61,30.42Z"/><path class="cls-2" d="M294.75.78H316.7V7.21H302v5.88h12.61v6H302v6.32H316.9V31.9H294.75Z"/><path class="cls-2" d="M29.8,42.37a18.78,18.78,0,0,1,8.73,1.94,14.11,14.11,0,0,1,5.87,5.47,15.66,15.66,0,0,1,2.09,8.12,15.87,15.87,0,0,1-2.07,8.16,14.18,14.18,0,0,1-5.84,5.48,18.67,18.67,0,0,1-8.71,1.95H17.2V42.37Zm5,23.6a7.61,7.61,0,0,0,3.28-3.12A9.81,9.81,0,0,0,39.19,58a10.25,10.25,0,0,0-1.1-4.86,7.52,7.52,0,0,0-3.26-3.2A11.1,11.1,0,0,0,29.6,48.8H24.36V67.06h5.26A11.35,11.35,0,0,0,34.77,66Z"/><path class="cls-2" d="M70.56,73.49l-2-5.06h-13l-2,5.06H45.89L58.66,42.34h6.8L78.23,73.49ZM58,62.41h8.21L62.3,52.69l-.21-1H62l-.2,1Z"/><path class="cls-2" d="M84.8,72.78a9.84,9.84,0,0,1-4.28-3.86,10.16,10.16,0,0,1-1.33-5.07h7.25A3.8,3.8,0,0,0,88,67a6.88,6.88,0,0,0,4.27,1.18,8.22,8.22,0,0,0,4.32-.87,3,3,0,0,0,1.35-2.68,2.42,2.42,0,0,0-.69-1.76,5.56,5.56,0,0,0-2-1.2,29.61,29.61,0,0,0-3.52-1,37.13,37.13,0,0,1-5.8-1.85,11.28,11.28,0,0,1-4.19-3,7.4,7.4,0,0,1-1.71-5,8.25,8.25,0,0,1,5.38-8A17.08,17.08,0,0,1,92,41.59a16.8,16.8,0,0,1,6.74,1.19,8.63,8.63,0,0,1,4.09,3.4,9.67,9.67,0,0,1,1.36,5.2H96.92a3.09,3.09,0,0,0-1.2-2.48,6,6,0,0,0-3.83-1c-3.12,0-4.67,1-4.67,2.91a2.23,2.23,0,0,0,.71,1.68,5.71,5.71,0,0,0,2.22,1.21,29.42,29.42,0,0,0,4,1,19.22,19.22,0,0,1,8.13,3.37,7.91,7.91,0,0,1,2.94,6.58,8.49,8.49,0,0,1-1.62,5.22,9.94,9.94,0,0,1-4.56,3.28,19.16,19.16,0,0,1-6.82,1.11A16.5,16.5,0,0,1,84.8,72.78Z"/><path class="cls-2" d="M109.71,42.37H117V54.49h13.59V42.37h7.27V73.49h-7.27V60.92H117V73.49h-7.26Z"/><path class="cls-2" d="M158.06,42.37a13,13,0,0,1,5.31,1,7.77,7.77,0,0,1,3.5,3A8.49,8.49,0,0,1,168.11,51a6.27,6.27,0,0,1-.52,2.48,7.2,7.2,0,0,1-1.38,2.15A5.45,5.45,0,0,1,164.33,57a8.49,8.49,0,0,1,2.77,1.6,8.15,8.15,0,0,1,2,2.53,6.66,6.66,0,0,1,.75,3.1,8.82,8.82,0,0,1-1.49,5.24,8.61,8.61,0,0,1-3.87,3.05,13.34,13.34,0,0,1-5.12,1H144.2V42.37ZM159.93,54a3.19,3.19,0,0,0,.88-2.3,3,3,0,0,0-.87-2.23,3,3,0,0,0-2.22-.88h-6.18v6.31h6.16A3,3,0,0,0,159.93,54Zm1.46,12.32a3.44,3.44,0,0,0,1-2.65,3.21,3.21,0,0,0-.48-1.72,3.42,3.42,0,0,0-1.34-1.24,4,4,0,0,0-1.91-.45h-7.16v7.05h7.16A3.74,3.74,0,0,0,161.39,66.3Z"/><path class="cls-2" d="M180.58,72a16.67,16.67,0,0,1-6.17-5.94,15.91,15.91,0,0,1,0-16.38,16.7,16.7,0,0,1,6.17-5.92,17.58,17.58,0,0,1,17,0,16.67,16.67,0,0,1,6.16,5.92,15.85,15.85,0,0,1,0,16.38A16.65,16.65,0,0,1,197.54,72a17.51,17.51,0,0,1-17,0ZM194,66.31a9.3,9.3,0,0,0,3.51-3.45,10.2,10.2,0,0,0,0-9.93A9.25,9.25,0,0,0,194,49.47a10.19,10.19,0,0,0-9.78,0,9.16,9.16,0,0,0-3.5,3.46,9.76,9.76,0,0,0-1.28,5,9.66,9.66,0,0,0,1.29,5,9.25,9.25,0,0,0,3.52,3.45,10.13,10.13,0,0,0,9.75,0Z"/><path class="cls-2" d="M230.08,73.49l-2-5.06h-13l-2,5.06h-7.66l12.77-31.15H225l12.77,31.15ZM217.47,62.41h8.21l-3.86-9.72-.21-1h-.07l-.21,1Z"/><path class="cls-2" d="M254.7,42.37a12.52,12.52,0,0,1,5.81,1.32,9.8,9.8,0,0,1,4,3.71,10.31,10.31,0,0,1,1.43,5.45,9.72,9.72,0,0,1-1.59,5.52A9.59,9.59,0,0,1,260,61.93l6.64,11.56h-8.31l-5.45-10.42h-4.62V73.49H241V42.37Zm1.87,14.1A4,4,0,0,0,258.12,55a4.19,4.19,0,0,0,.56-2.14,3.78,3.78,0,0,0-.57-2,4.16,4.16,0,0,0-1.56-1.47,4.27,4.27,0,0,0-2.15-.55h-6.11V57h6.11A4.42,4.42,0,0,0,256.57,56.47Z"/><path class="cls-2" d="M283,42.37a18.83,18.83,0,0,1,8.73,1.94,14.23,14.23,0,0,1,5.87,5.47,15.75,15.75,0,0,1,2.08,8.12,15.87,15.87,0,0,1-2.07,8.16,14.12,14.12,0,0,1-5.84,5.48,18.65,18.65,0,0,1-8.7,1.95H270.42V42.37ZM288,66a7.64,7.64,0,0,0,3.29-3.12A9.92,9.92,0,0,0,292.41,58a10.25,10.25,0,0,0-1.1-4.86,7.52,7.52,0,0,0-3.26-3.2,11.07,11.07,0,0,0-5.23-1.13h-5.24V67.06h5.26A11.35,11.35,0,0,0,288,66Z"/></g><path class="cls-2" d="M330.76,1.86h-2.93V.78h7.08V1.86H332v8.19h-1.21Z"/><path class="cls-2" d="M336.52.78h1l3.53,4.68h0L344.61.78h1.06v9.27h-1.21V2.73L341.26,7h-.35l-3.19-4.29v7.33h-1.2Z"/></g></svg>