<svg id="Layer_1" data-name="Layer 1" xmlns="http://www.w3.org/2000/svg" viewBox="0 0 94.54 95.01"><defs><style>.cls-1{opacity:0.6;}.cls-2{fill:#fff;}</style></defs><g class="cls-1"><path class="cls-2" d="M51.39,95H41.56a1,1,0,0,1-.89-.6L32.2,73.71.35,47.7A1,1,0,0,1,0,47V39.34a1,1,0,0,1,1-1H93.57a1,1,0,0,1,1,1v7.85a1,1,0,0,1-.37.75L61.84,73.73,52.26,94.45A1,1,0,0,1,51.39,95ZM42.2,93.09h8.58l9.41-20.38a1,1,0,0,1,.28-.35L92.61,46.73V40.3H1.92v6.19L33.6,72.37a1,1,0,0,1,.29.38Z"/><path class="cls-2" d="M20.13,48.15H1a1,1,0,0,1,0-1.92H20.13a1,1,0,0,1,0,1.92Z"/><path class="cls-2" d="M93.57,48.15H34.82a1,1,0,0,1,0-1.92H93.57a1,1,0,1,1,0,1.92Z"/><path class="cls-2" d="M47.43,74H33.12a1,1,0,1,1,0-1.92H47.43a1,1,0,1,1,0,1.92Z"/><path class="cls-2" d="M61.58,74H54.09a1,1,0,1,1,0-1.92h7.49a1,1,0,0,1,0,1.92Z"/><path class="cls-2" d="M88.78,40.3a1,1,0,0,1-1-1V32.88c0-8.32-8.25-8.59-8.61-8.6H65.9c-.33,0-8.59.28-8.59,8.6v6.46a1,1,0,0,1-1.93,0V32.88c0-10.23,10.4-10.52,10.51-10.52H79.22c.12,0,10.52.29,10.52,10.52v6.46A1,1,0,0,1,88.78,40.3Z"/><path class="cls-2" d="M82.16,40.3a1,1,0,0,1-1-1V33.15a1,1,0,0,1,1.93,0v6.19A1,1,0,0,1,82.16,40.3Z"/><path class="cls-2" d="M63.52,40.3a1,1,0,0,1-1-1V33.15a1,1,0,0,1,1.92,0v6.19A1,1,0,0,1,63.52,40.3Z"/><path class="cls-2" d="M29.86,40.3a1,1,0,0,1-1-1V32.88c0-10.23,10.4-10.52,10.5-10.52H52.74A12.55,12.55,0,0,1,59.89,25a1,1,0,1,1-1.24,1.47,10.61,10.61,0,0,0-5.93-2.18H39.42c-.34,0-8.59.28-8.59,8.6v6.46A1,1,0,0,1,29.86,40.3Z"/><path class="cls-2" d="M37,40.3a1,1,0,0,1-1-1V33.15a1,1,0,0,1,1.92,0v6.19A1,1,0,0,1,37,40.3Z"/><path class="cls-2" d="M5.54,40.3a1,1,0,0,1-1-1V32.88c0-10.23,10.39-10.52,10.5-10.52H28.42a12.89,12.89,0,0,1,6,1.8,1,1,0,0,1,.32,1.33,1,1,0,0,1-1.33.31,11.23,11.23,0,0,0-5-1.52H15.1c-.34,0-8.6.28-8.6,8.6v6.46A1,1,0,0,1,5.54,40.3Z"/><path class="cls-2" d="M12.72,40.3a1,1,0,0,1-1-1V33.15a1,1,0,0,1,1.93,0v6.19A1,1,0,0,1,12.72,40.3Z"/><path class="cls-2" d="M21.78,19.29a9.65,9.65,0,1,1,9.64-9.65A9.66,9.66,0,0,1,21.78,19.29Zm0-17.37A7.72,7.72,0,1,0,29.5,9.64,7.73,7.73,0,0,0,21.78,1.92Z"/><path class="cls-2" d="M47.27,19.29a9.65,9.65,0,1,1,9.64-9.65A9.66,9.66,0,0,1,47.27,19.29Zm0-17.37A7.72,7.72,0,1,0,55,9.64,7.73,7.73,0,0,0,47.27,1.92Z"/><path class="cls-2" d="M72.2,19.29a9.65,9.65,0,1,1,9.65-9.65A9.66,9.66,0,0,1,72.2,19.29Zm0-17.37a7.72,7.72,0,1,0,7.73,7.72A7.74,7.74,0,0,0,72.2,1.92Z"/></g></svg>