<svg id="Layer_1" data-name="Layer 1" xmlns="http://www.w3.org/2000/svg" viewBox="0 0 93.97 95.01"><defs><style>.cls-1{opacity:0.6;}.cls-2{fill:#fff;}</style></defs><g class="cls-1"><path class="cls-2" d="M93,95a1,1,0,0,1-1-1V87.78c0-8-8-8.29-8.32-8.3H70.83c-.32,0-8.31.27-8.31,8.3v6.27a1,1,0,0,1-1.92,0V87.78c0-9.94,10.11-10.22,10.21-10.22H83.75c.11,0,10.22.28,10.22,10.22v6.27A1,1,0,0,1,93,95Z"/><path class="cls-2" d="M86.59,95a1,1,0,0,1-1-1v-6a1,1,0,0,1,1.92,0v6A1,1,0,0,1,86.59,95Z"/><path class="cls-2" d="M68.52,95a1,1,0,0,1-1-1v-6a1,1,0,1,1,1.92,0v6A1,1,0,0,1,68.52,95Z"/><path class="cls-2" d="M76.94,74.64a9.39,9.39,0,1,1,9.38-9.39A9.4,9.4,0,0,1,76.94,74.64Zm0-16.84a7.46,7.46,0,1,0,7.46,7.45A7.46,7.46,0,0,0,76.94,57.8Z"/><path class="cls-2" d="M68.52,58.1a1,1,0,0,1-1-1V17.43a3,3,0,0,0-3-3H51.83a1,1,0,0,1,0-1.92H64.55a4.93,4.93,0,0,1,4.93,4.93V57.14A1,1,0,0,1,68.52,58.1Z"/><path class="cls-2" d="M59,94.62H4.93A4.93,4.93,0,0,1,0,89.69V17.43A4.93,4.93,0,0,1,4.93,12.5H17.29a1,1,0,0,1,0,1.92H4.93a3,3,0,0,0-3,3V89.69a3,3,0,0,0,3,3H59a1,1,0,1,1,0,1.92Z"/><path class="cls-2" d="M60.79,43.65H42.88a1,1,0,0,1-1-1V24.79a1,1,0,0,1,1-1H61.11a1,1,0,0,1,0,1.93H43.85v16h16V34.88a1,1,0,1,1,1.93,0v7.81A1,1,0,0,1,60.79,43.65Z"/><path class="cls-2" d="M51.83,18.78H17a1,1,0,0,1-1-1V9.29a1,1,0,0,1,1-1H51.83a1,1,0,0,1,1,1v8.53A1,1,0,0,1,51.83,18.78ZM17.94,16.86H50.87v-6.6H17.94Z"/><path class="cls-2" d="M45.88,10.26H22.57a1,1,0,0,1-1-1V6.79A6.8,6.8,0,0,1,28.4,0H40.05a6.8,6.8,0,0,1,6.79,6.79v2.5A1,1,0,0,1,45.88,10.26ZM23.54,8.33H44.92V6.79a4.88,4.88,0,0,0-4.87-4.87H28.4a4.87,4.87,0,0,0-4.86,4.87Z"/><path class="cls-2" d="M33,62.79H9.53a1,1,0,0,1,0-1.93H33a1,1,0,0,1,0,1.93Z"/><path class="cls-2" d="M57.6,69.88H9.53a1,1,0,0,1,0-1.92H57.6a1,1,0,1,1,0,1.92Z"/><path class="cls-2" d="M57.6,77H9.53a1,1,0,0,1,0-1.92H57.6a1,1,0,1,1,0,1.92Z"/><path class="cls-2" d="M57.6,84.08H9.53a1,1,0,0,1,0-1.93H57.6a1,1,0,0,1,0,1.93Z"/><path class="cls-2" d="M51.83,38.85h-.12a1,1,0,0,1-.67-.41L46.72,32.1A1,1,0,1,1,48.3,31L52,36.46l10.29-8.84a1,1,0,1,1,1.25,1.45l-11.1,9.55A1,1,0,0,1,51.83,38.85Z"/><path class="cls-2" d="M46.63,61.47a1,1,0,0,1-.29,0l-9.54-3a.89.89,0,0,1-.38-.23L8.78,31.35c-1.82-1.77-1.6-5,.51-7.14s5.3-2.48,7.12-.71L44.05,50.37a1,1,0,0,1,.24.38l3.25,9.45a1,1,0,0,1-.22,1A.94.94,0,0,1,46.63,61.47Zm-9-4.79L45.1,59l-2.55-7.44L15.07,24.88c-1.06-1-3-.73-4.4.67S9.06,28.94,10.12,30Z"/><path class="cls-2" d="M11.36,33.49a.94.94,0,0,1-.67-.28,1,1,0,0,1,0-1.36l5.93-6.09A1,1,0,1,1,18,27.1l-5.93,6.1A1,1,0,0,1,11.36,33.49Z"/><path class="cls-2" d="M36.69,58.1A1,1,0,0,1,36,56.47L42.29,50a1,1,0,0,1,1.38,1.34l-6.29,6.47A.94.94,0,0,1,36.69,58.1Z"/></g></svg>