<svg id="Layer_1" data-name="Layer 1" xmlns="http://www.w3.org/2000/svg" viewBox="0 0 101.62 95.01"><defs><style>.cls-1{opacity:0.6;}.cls-2{fill:#fff;}</style></defs><g class="cls-1"><path class="cls-2" d="M91.45,73.9H10.17A10.18,10.18,0,0,1,0,63.73V10.17A10.18,10.18,0,0,1,10.17,0H91.45a10.18,10.18,0,0,1,10.17,10.17V63.73A10.18,10.18,0,0,1,91.45,73.9Zm-81.28-72a8.26,8.26,0,0,0-8.25,8.25V63.73A8.26,8.26,0,0,0,10.17,72H91.45a8.26,8.26,0,0,0,8.25-8.25V10.17a8.26,8.26,0,0,0-8.25-8.25Z"/><path class="cls-2" d="M100.66,60.7H1.92a1,1,0,0,1,0-1.93h98.74a1,1,0,0,1,0,1.93Z"/><path class="cls-2" d="M9.41,19a5.16,5.16,0,1,1,5.16-5.15A5.16,5.16,0,0,1,9.41,19Zm0-8.38a3.23,3.23,0,1,0,3.23,3.23A3.23,3.23,0,0,0,9.41,10.57Z"/><path class="cls-2" d="M21.44,28.93a5.16,5.16,0,1,1,5.15-5.15A5.16,5.16,0,0,1,21.44,28.93Zm0-8.39a3.24,3.24,0,1,0,3.23,3.24A3.24,3.24,0,0,0,21.44,20.54Z"/><path class="cls-2" d="M33.74,20.24a5.16,5.16,0,1,1,5.16-5.15A5.16,5.16,0,0,1,33.74,20.24Zm0-8.39A3.24,3.24,0,1,0,37,15.09,3.24,3.24,0,0,0,33.74,11.85Z"/><path class="cls-2" d="M45.31,28.63a5.16,5.16,0,1,1,5.15-5.16A5.16,5.16,0,0,1,45.31,28.63Zm0-8.39a3.24,3.24,0,1,0,3.23,3.23A3.24,3.24,0,0,0,45.31,20.24Z"/><path class="cls-2" d="M56.34,19A5.16,5.16,0,1,1,61.5,13.8,5.16,5.16,0,0,1,56.34,19Zm0-8.38a3.23,3.23,0,1,0,3.23,3.23A3.23,3.23,0,0,0,56.34,10.57Z"/><path class="cls-2" d="M17.24,22.41a1,1,0,0,1-.65-.26l-5-4.58a1,1,0,1,1,1.3-1.42l5,4.59A1,1,0,0,1,18,22.1,1,1,0,0,1,17.24,22.41Z"/><path class="cls-2" d="M24.92,22.41a1,1,0,0,1-.65-1.68l5-4.58a1,1,0,0,1,1.3,1.42l-5,4.58A.94.94,0,0,1,24.92,22.41Z"/><path class="cls-2" d="M41.11,23a1,1,0,0,1-.65-.26L35.69,18.3A1,1,0,1,1,37,16.88l4.77,4.4a1,1,0,0,1,.06,1.36A1,1,0,0,1,41.11,23Z"/><path class="cls-2" d="M48.79,22.11a1,1,0,0,1-.67-.28,1,1,0,0,1,0-1.36L52.57,16a1,1,0,0,1,1.37,1.35l-4.46,4.51A1,1,0,0,1,48.79,22.11Z"/><path class="cls-2" d="M9.41,60.7a1,1,0,0,1-1-1V25.1a1,1,0,1,1,1.92,0V59.73A1,1,0,0,1,9.41,60.7Z"/><path class="cls-2" d="M21.44,60.7a1,1,0,0,1-1-1V32.64a1,1,0,0,1,1.92,0V59.73A1,1,0,0,1,21.44,60.7Z"/><path class="cls-2" d="M33.37,60.28a1,1,0,0,1-1-1V25.1a1,1,0,1,1,1.92,0V59.32A1,1,0,0,1,33.37,60.28Z"/><path class="cls-2" d="M45.31,60.28a1,1,0,0,1-1-1V32.42a1,1,0,0,1,1.92,0v26.9A1,1,0,0,1,45.31,60.28Z"/><path class="cls-2" d="M56.91,60.7a1,1,0,0,1-1-1V25.1a1,1,0,1,1,1.92,0V59.73A1,1,0,0,1,56.91,60.7Z"/><path class="cls-2" d="M79,51.56a15.54,15.54,0,1,1,0-31.08.94.94,0,0,1,.68.29,1,1,0,0,1,.28.68l-.13,15.1,9.68,9.55a1,1,0,0,1,.29.7,1,1,0,0,1-.31.69A15.51,15.51,0,0,1,79,51.56Zm-1-29.12A13.64,13.64,0,0,0,65.42,36a13.43,13.43,0,0,0,1.52,6.26,13.62,13.62,0,0,0,20.51,4.45l-9.22-9.09a1,1,0,0,1-.29-.7Z"/><path class="cls-2" d="M66.46,44.37A1,1,0,0,1,66,42.55L78.46,36.1a1,1,0,1,1,.89,1.7L66.91,44.26A1.06,1.06,0,0,1,66.46,44.37Z"/><path class="cls-2" d="M91.76,45.27a1,1,0,0,1-.67-.27l-9.76-9.5a.94.94,0,0,1-.29-.69V20.53a1,1,0,0,1,.32-.72,1,1,0,0,1,.74-.24A15.54,15.54,0,0,1,92.5,44.92a1,1,0,0,1-.69.35ZM83,34.4l8.69,8.46A13.62,13.62,0,0,0,83,21.63Z"/><path class="cls-2" d="M50.85,69.89a3.58,3.58,0,1,1,3.57-3.57A3.58,3.58,0,0,1,50.85,69.89Zm0-5.22a1.65,1.65,0,1,0,1.65,1.65A1.65,1.65,0,0,0,50.85,64.67Z"/><path class="cls-2" d="M67.51,89.71H34.44a1,1,0,0,1-.89-1.33l6.68-15.82a1,1,0,0,1,1.77.75L35.89,87.79H66.06L60,73.31a1,1,0,0,1,.51-1.26,1,1,0,0,1,1.26.52l6.58,15.81a1,1,0,0,1-.08.91A1,1,0,0,1,67.51,89.71Z"/><path class="cls-2" d="M76.67,95H24.88a1,1,0,0,1-1-1V92.46a4.67,4.67,0,0,1,4.67-4.67H73a4.68,4.68,0,0,1,4.67,4.67v1.59A1,1,0,0,1,76.67,95ZM25.84,93.09H75.7v-.63A2.75,2.75,0,0,0,73,89.71H28.59a2.75,2.75,0,0,0-2.75,2.75Z"/></g></svg>